<?xml version="1.0" standalone="no"?>
<!DOCTYPE svg PUBLIC "-//W3C//DTD SVG 1.1//EN" "http://www.w3.org/Graphics/SVG/1.1/DTD/svg11.dtd">
<svg xmlns="http://www.w3.org/2000/svg" version="1.1" width="500" height="500" viewBox="0 0 500 500">
<path d="M0 0 C17.86166106 14.91774228 29.61007422 33.89823557 32.875 57.1875 C32.96309281 59.82923567 33.00596956 62.44332048 32.99525452 65.084198 C32.99653615 66.24957492 32.99653615 66.24957492 32.99784368 67.4384948 C32.99948574 70.03177419 32.99399802 72.62498833 32.98852539 75.21826172 C32.98824322 77.081192 32.98840184 78.94412239 32.9889679 80.80705261 C32.9892547 85.85819887 32.98337687 90.90932136 32.97639394 95.96046209 C32.97014092 101.24155399 32.96955506 106.52264643 32.96836853 111.80374146 C32.96526097 121.80147446 32.95705531 131.79919652 32.94701904 141.79692471 C32.93584007 153.18015897 32.93034295 164.56339376 32.92532361 175.94663215 C32.91487224 199.36026083 32.8972839 222.7738798 32.875 246.1875 C34.21691406 246.06181641 34.21691406 246.06181641 35.5859375 245.93359375 C42.84431925 245.32228015 49.66237696 245.10726844 56.875 246.1875 C56.87131283 245.22911508 56.86762566 244.27073015 56.86382675 243.28330326 C56.77480421 219.90246847 56.7091909 196.5216558 56.66775131 173.14068699 C56.64717587 161.83355731 56.61915174 150.52653997 56.57324219 139.21948242 C56.53322023 129.35773178 56.50753077 119.49606255 56.49864602 109.63423294 C56.49345717 104.41836615 56.48136738 99.20273215 56.45207977 93.98694038 C56.42466733 89.06460915 56.41660649 84.14260373 56.42256927 79.2202034 C56.42148047 77.42609949 56.41368196 75.63198319 56.3981781 73.83794594 C56.18967774 48.43741299 63.34301313 26.46752939 81.1953125 7.90625 C82.07960938 7.0090625 82.96390625 6.111875 83.875 5.1875 C84.86113281 4.18203125 84.86113281 4.18203125 85.8671875 3.15625 C101.43714765 -11.54499992 124.07661383 -18.39855249 145.10986328 -18.16162109 C164.87072771 -17.54185428 182.33370814 -10.99466175 197.875 1.1875 C198.68324219 1.81269531 199.49148438 2.43789062 200.32421875 3.08203125 C210.91492438 11.861412 218.71385422 23.50680407 223.875 36.1875 C223.875 37.1775 223.875 38.1675 223.875 39.1875 C219.28019231 38.68414921 214.69069294 38.16611827 210.10546875 37.58203125 C187.46130353 34.86446302 166.30370226 37.73634011 145.875 48.1875 C145.01003906 48.60386719 144.14507812 49.02023438 143.25390625 49.44921875 C119.10939382 61.67916772 101.22958021 83.89599117 92.64599609 109.36743164 C88.96123169 120.8186099 87.58114122 132.30487252 87.55615234 144.31176758 C87.54610672 145.44508011 87.5360611 146.57839264 87.52571106 147.74604797 C87.4951558 151.4413712 87.47792157 155.13662295 87.4609375 158.83203125 C87.44220356 161.41420597 87.42262853 163.99637471 87.4022522 166.57853699 C87.35636439 172.64837503 87.31887294 178.71821013 87.28557932 184.78812855 C87.24714905 191.70733861 87.19779487 198.62645788 87.14759517 205.545591 C87.04471146 219.75949194 86.95531168 233.97345446 86.875 248.1875 C87.43695068 248.17589844 87.99890137 248.16429687 88.57788086 248.15234375 C93.63360004 248.09287095 98.42732857 248.40922094 103.4375 249.1875 C104.65566406 249.373125 105.87382812 249.55875 107.12890625 249.75 C108.03511719 249.894375 108.94132812 250.03875 109.875 250.1875 C109.87858253 249.29464704 109.87858253 249.29464704 109.88223743 248.38375664 C109.94160052 233.8413958 110.01728487 219.29918161 110.11071491 204.75700188 C110.15551282 197.72424705 110.19496342 190.69154106 110.22143555 183.65869141 C110.24702889 176.86342511 110.28803982 170.06838705 110.33818626 163.27325821 C110.35478818 160.68914655 110.36634379 158.10499707 110.37261391 155.52083969 C110.44799833 127.29157435 114.71763523 105.24797251 134.875 84.1875 C135.44992187 83.54941406 136.02484375 82.91132813 136.6171875 82.25390625 C147.98236133 70.04586068 167.02615365 61.06042763 183.68310547 60.01049805 C210.42658424 59.47477473 210.42658424 59.47477473 222.875 64.1875 C223.89980469 64.538125 224.92460937 64.88875 225.98046875 65.25 C234.15462117 68.29547982 240.95618133 72.99605171 247.875 78.1875 C248.53113281 78.65671875 249.18726563 79.1259375 249.86328125 79.609375 C263.74026176 90.34002342 273.15827278 108.40451435 276.875 125.1875 C276.97265625 128.05859375 276.97265625 128.05859375 276.875 130.1875 C276.00359375 129.66800781 275.1321875 129.14851562 274.234375 128.61328125 C251.74449563 115.36747394 227.788077 108.72948736 201.75 114.8125 C190.08483135 117.86071966 179.31630249 122.60324709 169.875 130.1875 C169.04355469 130.85523438 168.21210938 131.52296875 167.35546875 132.2109375 C149.58948721 147.3297605 139.84006213 169.11679471 137.875 192.1875 C137.68090827 197.11322953 137.61888938 202.03991757 137.55859375 206.96875 C137.53798677 208.39221753 137.51698942 209.81567945 137.49562073 211.23913574 C137.44078615 214.96097232 137.39120889 218.68286053 137.34277344 222.40478516 C137.29227393 226.21261109 137.23673734 230.02036331 137.18164062 233.828125 C137.07453239 241.28118734 136.97298513 248.73431154 136.875 256.1875 C138.13594482 256.34275146 139.39688965 256.49800293 140.69604492 256.65795898 C153.328125 258.21326014 153.328125 258.21326014 156.17578125 261.84765625 C158.35985652 267.05424326 157.875 271.41143791 157.875 277.1875 C82.965 277.1875 8.055 277.1875 -69.125 277.1875 C-67.89423077 263.64903846 -67.89423077 263.64903846 -65.125 260.1875 C-60.7650643 257.89898603 -56.30001011 257.17537898 -51.45361328 256.65356445 C-50.64304474 256.5656514 -49.8324762 256.47773834 -48.99734497 256.38716125 C-48.37947113 256.32127304 -47.76159729 256.25538483 -47.125 256.1875 C-47.18681595 248.13630438 -47.26433913 240.08546432 -47.36071491 232.03461552 C-47.4050214 228.29434008 -47.4443586 224.5541637 -47.47143555 220.8137207 C-47.71514465 188.1520238 -50.80644047 159.37472749 -74.42578125 134.79296875 C-92.15492603 117.76022246 -115.18704973 112.48423663 -139.1171875 112.87109375 C-156.08673843 113.50818496 -170.81457402 120.51733964 -185.125 129.1875 C-185.785 129.5175 -186.445 129.8475 -187.125 130.1875 C-186.65934029 117.149028 -180.80297342 104.54205778 -173.125 94.1875 C-172.03058594 92.70830078 -172.03058594 92.70830078 -170.9140625 91.19921875 C-157.71886069 74.39562032 -139.2442385 63.87449915 -118.125 60.1875 C-94.22096806 58.68076872 -71.63323194 61.62893713 -52.5234375 77.32421875 C-50.0065632 79.56355253 -47.55781949 81.85741782 -45.125 84.1875 C-44.485625 84.76371094 -43.84625 85.33992188 -43.1875 85.93359375 C-30.9281556 97.3446353 -22.67622262 115.612739 -21.125 132.1875 C-20.98782674 136.06351575 -20.99854332 139.936127 -21.01147461 143.81420898 C-21.01132858 144.9661525 -21.01118256 146.11809601 -21.0110321 147.3049469 C-21.01172662 151.09784859 -21.01949744 154.89070067 -21.02734375 158.68359375 C-21.02920957 161.31917799 -21.0306327 163.95476258 -21.03163147 166.59034729 C-21.03473253 172.80916652 -21.04292933 179.02796805 -21.05298096 185.2467795 C-21.06418024 192.33023869 -21.06966214 199.41369876 -21.07467639 206.49716461 C-21.08511302 221.06061884 -21.10268863 235.62405917 -21.125 250.1875 C-20.14660156 250.043125 -19.16820312 249.89875 -18.16015625 249.75 C-16.83598369 249.5621741 -15.51176222 249.37469275 -14.1875 249.1875 C-12.89972656 249.001875 -11.61195313 248.81625 -10.28515625 248.625 C-5.88414537 248.07794548 -1.55594929 248.11819874 2.875 248.1875 C2.81415486 233.35646356 2.73644017 218.5255844 2.63928509 203.69474125 C2.59454477 196.80668238 2.55508172 189.91867271 2.52856445 183.03051758 C2.50291341 176.37139292 2.46186543 169.71251921 2.41181374 163.05352592 C2.39524956 160.52492483 2.38367075 157.99628555 2.37738609 155.46763802 C2.2949082 125.30696535 -2.37033172 99.23520315 -22.125 75.1875 C-22.81207031 74.33542969 -23.49914062 73.48335938 -24.20703125 72.60546875 C-42.49400044 51.06145124 -69.58197139 38.93526081 -97.4375 36.3125 C-105.94221771 35.91227799 -114.31349892 36.88153435 -122.74902344 37.90136719 C-126.53797222 38.35766065 -130.33166937 38.76939743 -134.125 39.1875 C-131.93956907 23.77292718 -118.66425465 9.11007093 -106.875 -0.1875 C-75.46721847 -23.63541785 -31.28245784 -24.29331087 0 0 Z " fill="#FFFFFF" transform="translate(205.125,94.8125)"/>
<path d="M0 0 C24.0722011 -0.63347898 47.0170088 7.85171043 64.6875 24.125 C67.75038724 27.0671603 70.75040624 30.05736874 73.6875 33.125 C72.6875 35.125 72.6875 35.125 69.46875 36.31640625 C68.04226848 36.77531244 66.61513481 37.23219434 65.1875 37.6875 C51.67265648 42.24468051 39.3705764 48.58984515 28.6875 58.125 C27.87152344 58.79917969 27.05554688 59.47335938 26.21484375 60.16796875 C16.76936535 68.18275645 9.15379675 77.99101662 3.6875 89.125 C3.0275 89.125 2.3675 89.125 1.6875 89.125 C0.66535332 87.45406561 -0.27726053 85.73443641 -1.1875 84 C-14.00606108 61.51454884 -34.52327825 47.23861735 -58.3125 38.125 C-60.22990821 37.35601307 -62.14662189 36.58529117 -64.0625 35.8125 C-65.47880695 35.24909488 -66.89532785 34.68622525 -68.3125 34.125 C-52.8567104 15.00862865 -31.51331815 3.28217164 -7.125 0.4375 C-4.75082211 0.25487093 -2.3776048 0.12851918 0 0 Z " fill="#FFFFFF" transform="translate(247.3125,21.875)"/>
<path d="M0 0 C5.22171123 3.91628342 9.798045 7.51206356 14.29296875 12.09765625 C14.84688797 12.65440536 15.40080719 13.21115448 15.97151184 13.78477478 C17.71500105 15.53930739 19.45136425 17.30069395 21.1875 19.0625 C22.36085599 20.24591101 23.5346809 21.42885729 24.70898438 22.61132812 C27.29883364 25.22063152 29.88421796 27.83426331 32.46549988 30.45204163 C34.63637025 32.6419515 36.8195891 34.8195891 39 37 C39.33 25.45 39.66 13.9 40 2 C42.97 2 45.94 2 49 2 C49 20.81 49 39.62 49 59 C45.70296386 57.35148193 44.2454581 56.48470368 41.828125 53.98828125 C41.25054443 53.39909912 40.67296387 52.80991699 40.07788086 52.20288086 C39.47468018 51.57905518 38.87147949 50.95522949 38.25 50.3125 C32.76270608 44.69635298 32.76270608 44.69635298 26.9375 39.4375 C20.92799052 34.36163423 15.52644671 28.58401386 10 23 C9.67 34.55 9.34 46.1 9 58 C6.03 58 3.06 58 0 58 C0 38.86 0 19.72 0 0 Z " fill="#FFFFFF" transform="translate(260,419)"/>
<path d="M0 0 C23.64102564 0 23.64102564 0 28.875 4.4375 C32.00291413 8.20939645 32.17875243 11.11328732 32.25 15.875 C32.27578125 16.90367187 32.3015625 17.93234375 32.328125 18.9921875 C31.86112978 23.27297706 30.27134302 25.92730433 27 28.6875 C26.34 29.120625 25.68 29.55375 25 30 C24.01 30.66 23.02 31.32 22 32 C22.40839111 32.52432617 22.81678223 33.04865234 23.23754883 33.58886719 C25.0962331 35.97562575 26.95437171 38.36280858 28.8125 40.75 C29.45509766 41.575 30.09769531 42.4 30.75976562 43.25 C31.38173828 44.04921875 32.00371094 44.8484375 32.64453125 45.671875 C33.21534424 46.4050293 33.78615723 47.13818359 34.37426758 47.89355469 C34.91075928 48.58868164 35.44725098 49.28380859 36 50 C36.56420654 50.70801758 37.12841309 51.41603516 37.7097168 52.14550781 C39 54 39 54 39 56 C35.13938553 56.71439408 31.8452612 56.87663986 28 56 C24.25922312 52.85488823 21.72310695 49.03019829 19 45 C17.48282125 42.9348102 15.96218124 40.87215711 14.4375 38.8125 C13.303125 37.224375 12.16875 35.63625 11 34 C10.67 41.26 10.34 48.52 10 56 C6.7 56 3.4 56 0 56 C0 37.52 0 19.04 0 0 Z M10 9 C10 13.62 10 18.24 10 23 C11.423125 23.061875 12.84625 23.12375 14.3125 23.1875 C15.11300781 23.22230469 15.91351563 23.25710938 16.73828125 23.29296875 C19.05561895 23.17693798 19.05561895 23.17693798 20.7734375 21.70703125 C22.78925124 18.90158347 22.29758265 16.33292572 22 13 C20.27773504 9.75150023 20.27773504 9.75150023 17 9 C14.69 9 12.38 9 10 9 Z " fill="#FFFFFF" transform="translate(362,421)"/>
<path d="M0 0 C10.23 0 20.46 0 31 0 C31 2.97 31 5.94 31 9 C24.07 9 17.14 9 10 9 C10 12.96 10 16.92 10 21 C16.93 21 23.86 21 31 21 C31 23.97 31 26.94 31 30 C24.07 30 17.14 30 10 30 C10 35.61 10 41.22 10 47 C16.93 47 23.86 47 31 47 C31 49.97 31 52.94 31 56 C20.77 56 10.54 56 0 56 C0 37.52 0 19.04 0 0 Z " fill="#FFFFFF" transform="translate(218,421)"/>
<path d="M0 0 C0.29296875 2.3828125 0.29296875 2.3828125 0.1875 5.125 C0.14689453 6.49011719 0.14689453 6.49011719 0.10546875 7.8828125 C0.07066406 8.58148438 0.03585938 9.28015625 0 10 C-3.66275773 9.17903706 -6.6430125 7.67849375 -10 6 C-15.7633255 3.95494902 -21.59001777 4.66579222 -27.140625 6.95703125 C-31.22657578 9.24894062 -33.3441859 12.59468406 -35.3125 16.8125 C-36.78381356 23.63404471 -36.69280501 29.11147045 -33.19921875 35.27734375 C-30.10774111 39.718196 -26.22407414 41.9157582 -21 43 C-14.28198568 43.20635539 -9.46755233 41.62329638 -3.8125 38.05859375 C-2 37 -2 37 0 37 C0 40.63 0 44.26 0 48 C-9.87963805 53.10447966 -18.74864261 54.982996 -29.75 51.5 C-37.08916103 48.47113989 -42.11302157 43.55020168 -45.5 36.375 C-48.54364589 27.54299183 -48.29189067 17.66188217 -44.32421875 9.18359375 C-40.06951988 2.16773338 -33.89562989 -2.16526041 -26.1171875 -4.5859375 C-16.94246952 -6.38025504 -7.79578768 -5.19719179 0 0 Z " fill="#FFFFFF" transform="translate(207,425)"/>
<path d="M0 0 C10.23 0 20.46 0 31 0 C31 2.97 31 5.94 31 9 C23.74 9 16.48 9 9 9 C9 12.96 9 16.92 9 21 C16.26 21 23.52 21 31 21 C31 23.97 31 26.94 31 30 C23.74 30 16.48 30 9 30 C9 35.61 9 41.22 9 47 C16.26 47 23.52 47 31 47 C31 49.97 31 52.94 31 56 C20.77 56 10.54 56 0 56 C0 37.52 0 19.04 0 0 Z " fill="#FFFFFF" transform="translate(62,421)"/>
<path d="M0 0 C2.4375 1.9375 2.4375 1.9375 4 4 C4 5.32 4 6.64 4 8 C-1.75 11 -1.75 11 -4 11 C-4.556875 10.34 -5.11375 9.68 -5.6875 9 C-7.95254731 6.65510799 -7.95254731 6.65510799 -11.625 6.625 C-15.06832602 6.65186266 -15.06832602 6.65186266 -17 9 C-17.5838196 11.9149255 -17.5838196 11.9149255 -17 15 C-13.64991844 18.13728147 -10.15803659 19.99751919 -6 21.875 C-0.24898337 24.66208555 3.10583497 27.21166993 6 33 C6.55713132 38.95701945 6.52180186 43.95208399 3 49 C-1.73664042 53.7625237 -5.5928158 55.16542267 -12.25 55.3125 C-18.18924367 55.2530415 -21.37725133 54.73754148 -26 51 C-30 46.2 -30 46.2 -30 42.75 C-28.65757576 40.40075757 -27.56858687 39.80727016 -25 39 C-22.9375 39.125 -22.9375 39.125 -21 40 C-20.608125 40.66 -20.21625 41.32 -19.8125 42 C-17.24293208 44.8353853 -14.8936057 44.91314155 -11.16796875 45.15625 C-8.81194692 45.14351142 -8.81194692 45.14351142 -6.375 43.5 C-4.38104491 39.87462711 -4.8663609 37.93364245 -6 34 C-8.50030212 32.21014958 -10.49736986 31.0384831 -13.25 29.8125 C-24.54811165 24.46821019 -24.54811165 24.46821019 -27.875 18.8125 C-29.25204473 14.14584842 -29.48545224 10.65332275 -28 6 C-25.83554034 2.40167117 -23.28037073 -0.18198537 -19.75 -2.4375 C-12.57878052 -3.90434035 -6.414239 -3.59197384 0 0 Z " fill="#FFFFFF" transform="translate(129,423)"/>
<path d="M0 0 C2.68609266 2.39073437 4.12159844 4.86343207 5.72729492 8.06640625 C6.24760788 9.09757568 6.76792084 10.12874512 7.30400085 11.19116211 C7.85723526 12.30370361 8.41046967 13.41624512 8.98046875 14.5625 C9.55332108 15.70533447 10.1261734 16.84816895 10.71638489 18.02563477 C11.92547605 20.44177573 13.13206647 22.85898496 14.3347168 25.27832031 C15.87672452 28.37944994 17.4294686 31.47505567 18.98549938 34.56916809 C20.46882022 37.52236882 21.94299441 40.480124 23.41796875 43.4375 C23.97727585 44.5500415 24.53658295 45.66258301 25.11283875 46.80883789 C25.62369522 47.84000732 26.1345517 48.87117676 26.66088867 49.93359375 C27.11372726 50.84165771 27.56656586 51.74972168 28.03312683 52.68530273 C29 55 29 55 29 58 C25.7 58 22.4 58 19 58 C13.06 46.12 7.12 34.24 1 22 C-1.75274363 25.67032484 -3.78193803 29.30650312 -5.79296875 33.390625 C-6.31930656 34.44754547 -6.31930656 34.44754547 -6.85627747 35.52581787 C-7.97047115 37.76535416 -9.07905355 40.00761451 -10.1875 42.25 C-10.94429219 43.77362098 -11.70144965 45.29706057 -12.45898438 46.8203125 C-14.31022679 50.54478758 -16.15644348 54.27171494 -18 58 C-21.3 58 -24.6 58 -28 58 C-27.39075872 54.16991321 -26.25270074 51.13508837 -24.515625 47.67480469 C-23.73977051 46.11859406 -23.73977051 46.11859406 -22.94824219 44.53094482 C-22.38782227 43.42245178 -21.82740234 42.31395874 -21.25 41.171875 C-20.67668945 40.02712708 -20.10337891 38.88237915 -19.51269531 37.70294189 C-18.30247358 35.28708874 -17.08836195 32.87324766 -15.87109375 30.4609375 C-14.30861527 27.36436326 -12.75317473 24.26432259 -11.20025635 21.16294479 C-9.71936932 18.20631578 -8.23473096 15.25157515 -6.75 12.296875 C-6.18958008 11.18028503 -5.62916016 10.06369507 -5.05175781 8.91326904 C-4.53452148 7.88840393 -4.01728516 6.86353882 -3.484375 5.80761719 C-3.02772461 4.90114441 -2.57107422 3.99467163 -2.10058594 3.06072998 C-1 1 -1 1 0 0 Z " fill="#FFFFFF" transform="translate(430,419)"/>
<path d="M0 0 C3.456326 -0.50717827 6.55890339 -0.6784171 10 0 C12.75789102 2.31202213 14.29205208 5.11451353 16 8.25 C16.46277344 9.02730469 16.92554687 9.80460937 17.40234375 10.60546875 C19.40758466 14.00565985 21.25465587 17.4597281 23 21 C23.58285767 20.09906616 23.58285767 20.09906616 24.17749023 19.17993164 C25.92955342 16.47329429 27.68350078 13.76788309 29.4375 11.0625 C30.04916016 10.11697266 30.66082031 9.17144531 31.29101562 8.19726562 C31.87431641 7.29814453 32.45761719 6.39902344 33.05859375 5.47265625 C33.86768188 4.22367554 33.86768188 4.22367554 34.69311523 2.94946289 C36 1 36 1 37 0 C38.68608966 -0.07205511 40.37500659 -0.08386068 42.0625 -0.0625 C42.98160156 -0.05347656 43.90070312 -0.04445313 44.84765625 -0.03515625 C45.55792969 -0.02355469 46.26820312 -0.01195312 47 0 C44.88722378 4.60872596 42.63680593 8.62830195 39.58203125 12.6796875 C29.01463034 27.0253151 27.01821133 38.35585502 28 56 C24.7 56 21.4 56 18 56 C18.06703125 54.35515625 18.1340625 52.7103125 18.203125 51.015625 C18.45626474 35.13707658 15.88191597 24.93935392 6.52148438 12.10839844 C4.97788022 9.96934749 3.52696737 7.79467289 2.109375 5.5703125 C1.70170898 4.93109863 1.29404297 4.29188477 0.87402344 3.63330078 C0 2 0 2 0 0 Z " fill="#FFFFFF" transform="translate(10,421)"/>
<path d="M0 0 C12.54 0 25.08 0 38 0 C38 2.97 38 5.94 38 9 C33.38 9 28.76 9 24 9 C24 24.51 24 40.02 24 56 C20.7 56 17.4 56 14 56 C14 40.49 14 24.98 14 9 C9.38 9 4.76 9 0 9 C0 6.03 0 3.06 0 0 Z " fill="#FFFFFF" transform="translate(317,421)"/>
<path d="M0 0 C2.97 0 5.94 0 9 0 C9 15.51 9 31.02 9 47 C15.6 47 22.2 47 29 47 C29 49.97 29 52.94 29 56 C19.43 56 9.86 56 0 56 C0 37.52 0 19.04 0 0 Z " fill="#FFFFFF" transform="translate(461,421)"/>
<path d="M0 0 C16.17 0 32.34 0 49 0 C49 1.65 49 3.3 49 5 C32.83 5 16.66 5 0 5 C0 3.35 0 1.7 0 0 Z " fill="#FFFFFF" transform="translate(406,407)"/>
<path d="M0 0 C3 0.25 3 0.25 5 2.25 C5.25 5.25 5.25 5.25 5 8.25 C3 10.25 3 10.25 0 10.5 C-3 10.25 -3 10.25 -5 8.25 C-5.25 5.25 -5.25 5.25 -5 2.25 C-3 0.25 -3 0.25 0 0 Z " fill="#FFFFFF" transform="translate(148,466.75)"/>
</svg>